# xmcd CD database file
#
# Track frame offsets:
#	150
#	36573
#	56787
#	73891
#	101120
#	136139
#	156570
#	176852
#	201049
#	223761
#
# Disc length: 3264 seconds
#
# Revision: 0
# Processed by: cddbd v1.5.2PL0 Copyright (c) Steve Scherf et al.
# Submitted via: CDex 1.51
#
DISCID=a60cbe0a
DTITLE=Homesick James - Shake Your Moneymaker
DYEAR=2007
DGENRE=Blues
TTITLE0=Gotta Move
TTITLE1=Set a Date
TTITLE2=The Sky Is Crying
TTITLE3=Cross Cut Saw
TTITLE4=That's Alright Mama
TTITLE5=Shake Your Moneymaker
TTITLE6=Homesick Boogie
TTITLE7=Woman I love (Bonus)
TTITLE8=Early In The Morning (Bonus)
TTITLE9=Bottle Up And Go (Bonus)
EXTD=YEAR: 2007
EXTT0=
EXTT1=
EXTT2=
EXTT3=
EXTT4=
EXTT5=
EXTT6=
EXTT7=
EXTT8=
EXTT9=
PLAYORDER=
